<svg width="268" height="89" viewBox="0 0 268 89" fill="none" xmlns="http://www.w3.org/2000/svg">
<path d="M103.481 29.997C100.356 29.997 97.073 29.4292 94.5 28.0618V3.93528C97.0327 2.60648 100.316 2.00004 103.481 2.00004C106.646 2.00004 109.851 2.56783 112.381 3.93528V13.1923H106.01V6.89312C105.26 6.58991 104.349 6.47695 103.44 6.47695C102.532 6.47695 101.698 6.58991 100.908 6.89312V25.1039C101.658 25.4072 102.529 25.5201 103.44 25.5201C104.352 25.5201 105.22 25.4072 106.01 25.1039V18.8077H112.381V28.0648C109.888 29.3936 106.605 29.9614 103.481 30V29.997Z" fill="#F7DD43"/>
<path d="M124.328 29.997C120.965 29.997 117.722 29.3133 115.149 27.9101V4.0482C117.682 2.68372 120.927 2 124.328 2C127.729 2 130.894 2.64508 133.427 4.0482V27.9101C130.934 29.3133 127.651 29.9583 124.328 29.997ZM127.059 6.97037C126.309 6.66715 125.398 6.51555 124.291 6.51555C123.184 6.51555 122.313 6.66715 121.56 6.97037V24.9909C122.31 25.3328 123.221 25.4844 124.291 25.4844C125.36 25.4844 126.269 25.3328 127.059 24.9909V6.97037Z" fill="#F7DD43"/>
<path d="M144.543 19.753H142.841V29.6551H136.393V2.34188H144.543C148.421 2.34188 151.348 3.09992 153.642 4.65465V17.4403C151.388 18.9593 148.418 19.753 144.543 19.753ZM147.234 7.04471C146.642 6.62853 145.848 6.43827 144.503 6.43827H142.761V15.6566H144.503C145.808 15.6566 146.598 15.4664 147.234 15.0889V7.04471Z" fill="#F7DD43"/>
<path d="M167.13 29.6551V19.753H162.383V29.6551H155.976V4.00955C158.31 2.68075 161.593 2 164.758 2C167.923 2 171.166 2.68372 173.5 4.00955V29.6551H167.13ZM167.13 6.74147C166.457 6.43826 165.626 6.28665 164.755 6.28665C163.884 6.28665 163.053 6.43826 162.38 6.74147V15.4277H167.126V6.74147H167.13Z" fill="#F7DD43"/>
<path d="M17.4131 59.4521V44.6719H21.793V59.4521C21.793 60.8779 21.4805 62.1035 20.8555 63.1289C20.2305 64.1445 19.376 64.9258 18.292 65.4727C17.2178 66.0195 16.0068 66.293 14.6592 66.293C13.2627 66.293 12.0273 66.0586 10.9531 65.5898C9.87891 65.1211 9.03418 64.4033 8.41895 63.4365C7.80371 62.46 7.49609 61.2246 7.49609 59.7305H11.9053C11.9053 60.5117 12.0127 61.1318 12.2275 61.5908C12.4521 62.0498 12.7695 62.377 13.1797 62.5723C13.5898 62.7676 14.083 62.8652 14.6592 62.8652C15.2158 62.8652 15.6992 62.7334 16.1094 62.4697C16.5195 62.2061 16.8369 61.8203 17.0615 61.3125C17.2959 60.8047 17.4131 60.1846 17.4131 59.4521ZM43.0625 54.8379V55.8486C43.0625 57.4697 42.8428 58.9248 42.4033 60.2139C41.9639 61.5029 41.3438 62.6016 40.543 63.5098C39.7422 64.4082 38.7852 65.0967 37.6719 65.5752C36.5684 66.0537 35.3428 66.293 33.9951 66.293C32.6572 66.293 31.4316 66.0537 30.3184 65.5752C29.2148 65.0967 28.2578 64.4082 27.4473 63.5098C26.6367 62.6016 26.0068 61.5029 25.5576 60.2139C25.1182 58.9248 24.8984 57.4697 24.8984 55.8486V54.8379C24.8984 53.207 25.1182 51.752 25.5576 50.4727C25.9971 49.1836 26.6172 48.085 27.418 47.1768C28.2285 46.2686 29.1855 45.5752 30.2891 45.0967C31.4023 44.6182 32.6279 44.3789 33.9658 44.3789C35.3135 44.3789 36.5391 44.6182 37.6426 45.0967C38.7559 45.5752 39.7129 46.2686 40.5137 47.1768C41.3242 48.085 41.9492 49.1836 42.3887 50.4727C42.8379 51.752 43.0625 53.207 43.0625 54.8379ZM38.624 55.8486V54.8086C38.624 53.6758 38.5215 52.6797 38.3164 51.8203C38.1113 50.9609 37.8086 50.2383 37.4082 49.6523C37.0078 49.0664 36.5195 48.627 35.9434 48.334C35.3672 48.0312 34.708 47.8799 33.9658 47.8799C33.2236 47.8799 32.5645 48.0312 31.9883 48.334C31.4219 48.627 30.9385 49.0664 30.5381 49.6523C30.1475 50.2383 29.8496 50.9609 29.6445 51.8203C29.4395 52.6797 29.3369 53.6758 29.3369 54.8086V55.8486C29.3369 56.9717 29.4395 57.9678 29.6445 58.8369C29.8496 59.6963 30.1523 60.4238 30.5527 61.0195C30.9531 61.6055 31.4414 62.0498 32.0176 62.3525C32.5938 62.6553 33.2529 62.8066 33.9951 62.8066C34.7373 62.8066 35.3965 62.6553 35.9727 62.3525C36.5488 62.0498 37.0322 61.6055 37.4229 61.0195C37.8135 60.4238 38.1113 59.6963 38.3164 58.8369C38.5215 57.9678 38.624 56.9717 38.624 55.8486ZM63.1309 54.8525V63.3047C62.7988 63.7051 62.2861 64.1396 61.5928 64.6084C60.8994 65.0674 60.0059 65.4629 58.9121 65.7949C57.8184 66.127 56.4951 66.293 54.9424 66.293C53.5654 66.293 52.3105 66.0684 51.1777 65.6191C50.0449 65.1602 49.0684 64.4912 48.248 63.6123C47.4375 62.7334 46.8125 61.6592 46.373 60.3896C45.9336 59.1104 45.7139 57.6504 45.7139 56.0098V54.6768C45.7139 53.0361 45.9238 51.5762 46.3438 50.2969C46.7734 49.0176 47.3838 47.9385 48.1748 47.0596C48.9658 46.1807 49.9082 45.5117 51.002 45.0527C52.0957 44.5938 53.3115 44.3643 54.6494 44.3643C56.5049 44.3643 58.0283 44.667 59.2197 45.2725C60.4111 45.8682 61.3193 46.6982 61.9443 47.7627C62.5791 48.8174 62.9697 50.0283 63.1162 51.3955H58.8535C58.7461 50.6729 58.541 50.043 58.2383 49.5059C57.9355 48.9688 57.501 48.5488 56.9346 48.2461C56.3779 47.9434 55.6553 47.792 54.7666 47.792C54.0342 47.792 53.3799 47.9434 52.8037 48.2461C52.2373 48.5391 51.7588 48.9736 51.3682 49.5498C50.9775 50.126 50.6797 50.8389 50.4746 51.6885C50.2695 52.5381 50.167 53.5244 50.167 54.6475V56.0098C50.167 57.123 50.2744 58.1094 50.4893 58.9688C50.7041 59.8184 51.0215 60.5361 51.4414 61.1221C51.8711 61.6982 52.3984 62.1328 53.0234 62.4258C53.6484 62.7188 54.376 62.8652 55.2061 62.8652C55.8994 62.8652 56.4756 62.8066 56.9346 62.6895C57.4033 62.5723 57.7793 62.4307 58.0625 62.2646C58.3555 62.0889 58.5801 61.9229 58.7363 61.7666V57.9873H54.7227V54.8525H63.1309ZM84.1953 54.8379V55.8486C84.1953 57.4697 83.9756 58.9248 83.5361 60.2139C83.0967 61.5029 82.4766 62.6016 81.6758 63.5098C80.875 64.4082 79.918 65.0967 78.8047 65.5752C77.7012 66.0537 76.4756 66.293 75.1279 66.293C73.79 66.293 72.5645 66.0537 71.4512 65.5752C70.3477 65.0967 69.3906 64.4082 68.5801 63.5098C67.7695 62.6016 67.1396 61.5029 66.6904 60.2139C66.251 58.9248 66.0312 57.4697 66.0312 55.8486V54.8379C66.0312 53.207 66.251 51.752 66.6904 50.4727C67.1299 49.1836 67.75 48.085 68.5508 47.1768C69.3613 46.2686 70.3184 45.5752 71.4219 45.0967C72.5352 44.6182 73.7607 44.3789 75.0986 44.3789C76.4463 44.3789 77.6719 44.6182 78.7754 45.0967C79.8887 45.5752 80.8457 46.2686 81.6465 47.1768C82.457 48.085 83.082 49.1836 83.5215 50.4727C83.9707 51.752 84.1953 53.207 84.1953 54.8379ZM79.7568 55.8486V54.8086C79.7568 53.6758 79.6543 52.6797 79.4492 51.8203C79.2441 50.9609 78.9414 50.2383 78.541 49.6523C78.1406 49.0664 77.6523 48.627 77.0762 48.334C76.5 48.0312 75.8408 47.8799 75.0986 47.8799C74.3564 47.8799 73.6973 48.0312 73.1211 48.334C72.5547 48.627 72.0713 49.0664 71.6709 49.6523C71.2803 50.2383 70.9824 50.9609 70.7773 51.8203C70.5723 52.6797 70.4697 53.6758 70.4697 54.8086V55.8486C70.4697 56.9717 70.5723 57.9678 70.7773 58.8369C70.9824 59.6963 71.2852 60.4238 71.6855 61.0195C72.0859 61.6055 72.5742 62.0498 73.1504 62.3525C73.7266 62.6553 74.3857 62.8066 75.1279 62.8066C75.8701 62.8066 76.5293 62.6553 77.1055 62.3525C77.6816 62.0498 78.165 61.6055 78.5557 61.0195C78.9463 60.4238 79.2441 59.6963 79.4492 58.8369C79.6543 57.9678 79.7568 56.9717 79.7568 55.8486ZM98.4629 60.4189C98.4629 60.0381 98.4043 59.6963 98.2871 59.3936C98.1797 59.0811 97.9746 58.7979 97.6719 58.5439C97.3691 58.2803 96.9443 58.0215 96.3975 57.7676C95.8506 57.5137 95.1426 57.25 94.2734 56.9766C93.3066 56.6641 92.3887 56.3125 91.5195 55.9219C90.6602 55.5312 89.8984 55.0771 89.2344 54.5596C88.5801 54.0322 88.0625 53.4219 87.6816 52.7285C87.3105 52.0352 87.125 51.2295 87.125 50.3115C87.125 49.4229 87.3203 48.6172 87.7109 47.8945C88.1016 47.1621 88.6484 46.5371 89.3516 46.0195C90.0547 45.4922 90.8848 45.0869 91.8418 44.8037C92.8086 44.5205 93.8682 44.3789 95.0205 44.3789C96.5928 44.3789 97.9648 44.6621 99.1367 45.2285C100.309 45.7949 101.217 46.5713 101.861 47.5576C102.516 48.5439 102.843 49.6719 102.843 50.9414H98.4775C98.4775 50.3164 98.3457 49.7695 98.082 49.3008C97.8281 48.8223 97.4375 48.4463 96.9102 48.1729C96.3926 47.8994 95.7383 47.7627 94.9473 47.7627C94.1855 47.7627 93.5508 47.8799 93.043 48.1143C92.5352 48.3389 92.1543 48.6465 91.9004 49.0371C91.6465 49.418 91.5195 49.8477 91.5195 50.3262C91.5195 50.6875 91.6074 51.0146 91.7832 51.3076C91.9688 51.6006 92.2422 51.874 92.6035 52.1279C92.9648 52.3818 93.4092 52.6211 93.9365 52.8457C94.4639 53.0703 95.0742 53.29 95.7676 53.5049C96.9297 53.8564 97.9502 54.252 98.8291 54.6914C99.7178 55.1309 100.46 55.624 101.056 56.1709C101.651 56.7178 102.101 57.3379 102.403 58.0312C102.706 58.7246 102.857 59.5107 102.857 60.3896C102.857 61.3174 102.677 62.1475 102.315 62.8799C101.954 63.6123 101.432 64.2324 100.748 64.7402C100.064 65.248 99.249 65.6338 98.3018 65.8975C97.3545 66.1611 96.2949 66.293 95.123 66.293C94.0684 66.293 93.0283 66.1562 92.0029 65.8828C90.9775 65.5996 90.0449 65.1748 89.2051 64.6084C88.375 64.042 87.7109 63.3193 87.2129 62.4404C86.7148 61.5615 86.4658 60.5215 86.4658 59.3203H90.875C90.875 59.9844 90.9775 60.5459 91.1826 61.0049C91.3877 61.4639 91.6758 61.835 92.0469 62.1182C92.4277 62.4014 92.877 62.6064 93.3945 62.7334C93.9219 62.8604 94.498 62.9238 95.123 62.9238C95.8848 62.9238 96.5098 62.8164 96.998 62.6016C97.4961 62.3867 97.8623 62.0889 98.0967 61.708C98.3408 61.3271 98.4629 60.8975 98.4629 60.4189ZM119.864 66H115.221L115.25 62.5723H119.864C121.017 62.5723 121.988 62.3135 122.779 61.7959C123.57 61.2686 124.166 60.502 124.566 59.4961C124.977 58.4902 125.182 57.2744 125.182 55.8486V54.8086C125.182 53.7148 125.064 52.7529 124.83 51.9229C124.605 51.0928 124.269 50.3945 123.819 49.8281C123.37 49.2617 122.818 48.8369 122.164 48.5537C121.51 48.2607 120.758 48.1143 119.908 48.1143H115.133V44.6719H119.908C121.334 44.6719 122.638 44.916 123.819 45.4043C125.011 45.8828 126.041 46.5713 126.91 47.4697C127.779 48.3682 128.448 49.4424 128.917 50.6924C129.396 51.9326 129.635 53.3145 129.635 54.8379V55.8486C129.635 57.3623 129.396 58.7441 128.917 59.9941C128.448 61.2441 127.779 62.3184 126.91 63.2168C126.051 64.1055 125.021 64.7939 123.819 65.2822C122.628 65.7607 121.31 66 119.864 66ZM117.711 44.6719V66H113.316V44.6719H117.711ZM150.348 54.8379V55.8486C150.348 57.4697 150.128 58.9248 149.688 60.2139C149.249 61.5029 148.629 62.6016 147.828 63.5098C147.027 64.4082 146.07 65.0967 144.957 65.5752C143.854 66.0537 142.628 66.293 141.28 66.293C139.942 66.293 138.717 66.0537 137.604 65.5752C136.5 65.0967 135.543 64.4082 134.732 63.5098C133.922 62.6016 133.292 61.5029 132.843 60.2139C132.403 58.9248 132.184 57.4697 132.184 55.8486V54.8379C132.184 53.207 132.403 51.752 132.843 50.4727C133.282 49.1836 133.902 48.085 134.703 47.1768C135.514 46.2686 136.471 45.5752 137.574 45.0967C138.688 44.6182 139.913 44.3789 141.251 44.3789C142.599 44.3789 143.824 44.6182 144.928 45.0967C146.041 45.5752 146.998 46.2686 147.799 47.1768C148.609 48.085 149.234 49.1836 149.674 50.4727C150.123 51.752 150.348 53.207 150.348 54.8379ZM145.909 55.8486V54.8086C145.909 53.6758 145.807 52.6797 145.602 51.8203C145.396 50.9609 145.094 50.2383 144.693 49.6523C144.293 49.0664 143.805 48.627 143.229 48.334C142.652 48.0312 141.993 47.8799 141.251 47.8799C140.509 47.8799 139.85 48.0312 139.273 48.334C138.707 48.627 138.224 49.0664 137.823 49.6523C137.433 50.2383 137.135 50.9609 136.93 51.8203C136.725 52.6797 136.622 53.6758 136.622 54.8086V55.8486C136.622 56.9717 136.725 57.9678 136.93 58.8369C137.135 59.6963 137.438 60.4238 137.838 61.0195C138.238 61.6055 138.727 62.0498 139.303 62.3525C139.879 62.6553 140.538 62.8066 141.28 62.8066C142.022 62.8066 142.682 62.6553 143.258 62.3525C143.834 62.0498 144.317 61.6055 144.708 61.0195C145.099 60.4238 145.396 59.6963 145.602 58.8369C145.807 57.9678 145.909 56.9717 145.909 55.8486ZM169.332 56.6396H163.854L163.824 53.6221H168.424C169.234 53.6221 169.898 53.5195 170.416 53.3145C170.934 53.0996 171.319 52.792 171.573 52.3916C171.837 51.9814 171.969 51.4834 171.969 50.8975C171.969 50.2334 171.842 49.6963 171.588 49.2861C171.344 48.876 170.958 48.5781 170.431 48.3926C169.913 48.207 169.244 48.1143 168.424 48.1143H165.377V66H160.982V44.6719H168.424C169.664 44.6719 170.772 44.7891 171.749 45.0234C172.735 45.2578 173.57 45.6143 174.254 46.0928C174.938 46.5713 175.46 47.1768 175.821 47.9092C176.183 48.6318 176.363 49.4912 176.363 50.4873C176.363 51.3662 176.163 52.1768 175.763 52.9189C175.372 53.6611 174.752 54.2666 173.902 54.7354C173.062 55.2041 171.964 55.4629 170.606 55.5117L169.332 56.6396ZM169.142 66H162.652L164.366 62.5723H169.142C169.913 62.5723 170.543 62.4502 171.031 62.2061C171.52 61.9521 171.881 61.6104 172.115 61.1807C172.35 60.751 172.467 60.2578 172.467 59.7012C172.467 59.0762 172.359 58.5342 172.145 58.0752C171.939 57.6162 171.607 57.2646 171.148 57.0205C170.689 56.7666 170.084 56.6396 169.332 56.6396H165.099L165.128 53.6221H170.401L171.412 54.8086C172.711 54.7891 173.756 55.0186 174.547 55.4971C175.348 55.9658 175.929 56.5762 176.29 57.3281C176.661 58.0801 176.847 58.8857 176.847 59.7451C176.847 61.1123 176.549 62.2646 175.953 63.2021C175.357 64.1299 174.483 64.8281 173.331 65.2969C172.188 65.7656 170.792 66 169.142 66ZM180.143 44.6719H188.097C189.728 44.6719 191.129 44.916 192.301 45.4043C193.482 45.8926 194.391 46.6152 195.025 47.5723C195.66 48.5293 195.978 49.7061 195.978 51.1025C195.978 52.2451 195.782 53.2266 195.392 54.0469C195.011 54.8574 194.469 55.5361 193.766 56.083C193.072 56.6201 192.257 57.0498 191.319 57.3721L189.928 58.1045H183.014L182.984 54.6768H188.126C188.897 54.6768 189.537 54.54 190.045 54.2666C190.553 53.9932 190.934 53.6123 191.188 53.124C191.451 52.6357 191.583 52.0693 191.583 51.4248C191.583 50.7412 191.456 50.1504 191.202 49.6523C190.948 49.1543 190.562 48.7734 190.045 48.5098C189.527 48.2461 188.878 48.1143 188.097 48.1143H184.537V66H180.143V44.6719ZM192.066 66L187.203 56.4932L191.847 56.4639L196.769 65.7949V66H192.066ZM208.033 48.3193L202.232 66H197.56L205.484 44.6719H208.458L208.033 48.3193ZM212.853 66L207.037 48.3193L206.568 44.6719H209.571L217.54 66H212.853ZM212.589 58.0605V61.5029H201.324V58.0605H212.589ZM230.621 60.4189C230.621 60.0381 230.562 59.6963 230.445 59.3936C230.338 59.0811 230.133 58.7979 229.83 58.5439C229.527 58.2803 229.103 58.0215 228.556 57.7676C228.009 57.5137 227.301 57.25 226.432 56.9766C225.465 56.6641 224.547 56.3125 223.678 55.9219C222.818 55.5312 222.057 55.0771 221.393 54.5596C220.738 54.0322 220.221 53.4219 219.84 52.7285C219.469 52.0352 219.283 51.2295 219.283 50.3115C219.283 49.4229 219.479 48.6172 219.869 47.8945C220.26 47.1621 220.807 46.5371 221.51 46.0195C222.213 45.4922 223.043 45.0869 224 44.8037C224.967 44.5205 226.026 44.3789 227.179 44.3789C228.751 44.3789 230.123 44.6621 231.295 45.2285C232.467 45.7949 233.375 46.5713 234.02 47.5576C234.674 48.5439 235.001 49.6719 235.001 50.9414H230.636C230.636 50.3164 230.504 49.7695 230.24 49.3008C229.986 48.8223 229.596 48.4463 229.068 48.1729C228.551 47.8994 227.896 47.7627 227.105 47.7627C226.344 47.7627 225.709 47.8799 225.201 48.1143C224.693 48.3389 224.312 48.6465 224.059 49.0371C223.805 49.418 223.678 49.8477 223.678 50.3262C223.678 50.6875 223.766 51.0146 223.941 51.3076C224.127 51.6006 224.4 51.874 224.762 52.1279C225.123 52.3818 225.567 52.6211 226.095 52.8457C226.622 53.0703 227.232 53.29 227.926 53.5049C229.088 53.8564 230.108 54.252 230.987 54.6914C231.876 55.1309 232.618 55.624 233.214 56.1709C233.81 56.7178 234.259 57.3379 234.562 58.0312C234.864 58.7246 235.016 59.5107 235.016 60.3896C235.016 61.3174 234.835 62.1475 234.474 62.8799C234.112 63.6123 233.59 64.2324 232.906 64.7402C232.223 65.248 231.407 65.6338 230.46 65.8975C229.513 66.1611 228.453 66.293 227.281 66.293C226.227 66.293 225.187 66.1562 224.161 65.8828C223.136 65.5996 222.203 65.1748 221.363 64.6084C220.533 64.042 219.869 63.3193 219.371 62.4404C218.873 61.5615 218.624 60.5215 218.624 59.3203H223.033C223.033 59.9844 223.136 60.5459 223.341 61.0049C223.546 61.4639 223.834 61.835 224.205 62.1182C224.586 62.4014 225.035 62.6064 225.553 62.7334C226.08 62.8604 226.656 62.9238 227.281 62.9238C228.043 62.9238 228.668 62.8164 229.156 62.6016C229.654 62.3867 230.021 62.0889 230.255 61.708C230.499 61.3271 230.621 60.8975 230.621 60.4189ZM242.677 44.6719V66H238.297V44.6719H242.677ZM260.504 62.5723V66H249.767V62.5723H260.504ZM251.188 44.6719V66H246.793V44.6719H251.188Z" fill="url(#paint0_linear_122_239)"/>
<defs>
<linearGradient id="paint0_linear_122_239" x1="134" y1="37" x2="134" y2="76" gradientUnits="userSpaceOnUse">
<stop stop-color="white"/>
<stop offset="1" stop-color="#D9D9D9" stop-opacity="0.8"/>
</linearGradient>
</defs>
</svg>
