<svg width="268" height="89" viewBox="0 0 268 89" fill="none" xmlns="http://www.w3.org/2000/svg">
<path d="M103.481 29.997C100.356 29.997 97.073 29.4292 94.5 28.0618V3.93528C97.0327 2.60648 100.316 2.00004 103.481 2.00004C106.646 2.00004 109.851 2.56783 112.381 3.93528V13.1923H106.01V6.89312C105.26 6.58991 104.349 6.47695 103.44 6.47695C102.532 6.47695 101.698 6.58991 100.908 6.89312V25.1039C101.658 25.4072 102.529 25.5201 103.44 25.5201C104.352 25.5201 105.22 25.4072 106.01 25.1039V18.8077H112.381V28.0648C109.888 29.3936 106.605 29.9614 103.481 30V29.997Z" fill="#F7DD43"/>
<path d="M124.328 29.997C120.965 29.997 117.722 29.3133 115.149 27.9101V4.0482C117.682 2.68372 120.927 2 124.328 2C127.729 2 130.894 2.64508 133.427 4.0482V27.9101C130.934 29.3133 127.651 29.9583 124.328 29.997ZM127.059 6.97037C126.309 6.66715 125.398 6.51555 124.291 6.51555C123.184 6.51555 122.313 6.66715 121.56 6.97037V24.9909C122.31 25.3328 123.221 25.4844 124.291 25.4844C125.36 25.4844 126.269 25.3328 127.059 24.9909V6.97037Z" fill="#F7DD43"/>
<path d="M144.543 19.753H142.841V29.6551H136.393V2.34188H144.543C148.421 2.34188 151.348 3.09992 153.642 4.65465V17.4403C151.388 18.9593 148.418 19.753 144.543 19.753ZM147.234 7.04471C146.642 6.62853 145.848 6.43827 144.503 6.43827H142.761V15.6566H144.503C145.808 15.6566 146.598 15.4664 147.234 15.0889V7.04471Z" fill="#F7DD43"/>
<path d="M167.13 29.6551V19.753H162.383V29.6551H155.976V4.00955C158.31 2.68075 161.593 2 164.758 2C167.923 2 171.166 2.68372 173.5 4.00955V29.6551H167.13ZM167.13 6.74147C166.457 6.43826 165.626 6.28665 164.755 6.28665C163.884 6.28665 163.053 6.43826 162.38 6.74147V15.4277H167.126V6.74147H167.13Z" fill="#F7DD43"/>
<path d="M21.0752 44.6719V66H16.6953V44.6719H21.0752ZM27.6377 44.6719V48.1143H10.2354V44.6719H27.6377ZM47.252 54.8379V55.8486C47.252 57.4697 47.0322 58.9248 46.5928 60.2139C46.1533 61.5029 45.5332 62.6016 44.7324 63.5098C43.9316 64.4082 42.9746 65.0967 41.8613 65.5752C40.7578 66.0537 39.5322 66.293 38.1846 66.293C36.8467 66.293 35.6211 66.0537 34.5078 65.5752C33.4043 65.0967 32.4473 64.4082 31.6367 63.5098C30.8262 62.6016 30.1963 61.5029 29.7471 60.2139C29.3076 58.9248 29.0879 57.4697 29.0879 55.8486V54.8379C29.0879 53.207 29.3076 51.752 29.7471 50.4727C30.1865 49.1836 30.8066 48.085 31.6074 47.1768C32.418 46.2686 33.375 45.5752 34.4785 45.0967C35.5918 44.6182 36.8174 44.3789 38.1553 44.3789C39.5029 44.3789 40.7285 44.6182 41.832 45.0967C42.9453 45.5752 43.9023 46.2686 44.7031 47.1768C45.5137 48.085 46.1387 49.1836 46.5781 50.4727C47.0273 51.752 47.252 53.207 47.252 54.8379ZM42.8135 55.8486V54.8086C42.8135 53.6758 42.7109 52.6797 42.5059 51.8203C42.3008 50.9609 41.998 50.2383 41.5977 49.6523C41.1973 49.0664 40.709 48.627 40.1328 48.334C39.5566 48.0312 38.8975 47.8799 38.1553 47.8799C37.4131 47.8799 36.7539 48.0312 36.1777 48.334C35.6113 48.627 35.1279 49.0664 34.7275 49.6523C34.3369 50.2383 34.0391 50.9609 33.834 51.8203C33.6289 52.6797 33.5264 53.6758 33.5264 54.8086V55.8486C33.5264 56.9717 33.6289 57.9678 33.834 58.8369C34.0391 59.6963 34.3418 60.4238 34.7422 61.0195C35.1426 61.6055 35.6309 62.0498 36.207 62.3525C36.7832 62.6553 37.4424 62.8066 38.1846 62.8066C38.9268 62.8066 39.5859 62.6553 40.1621 62.3525C40.7383 62.0498 41.2217 61.6055 41.6123 61.0195C42.0029 60.4238 42.3008 59.6963 42.5059 58.8369C42.7109 57.9678 42.8135 56.9717 42.8135 55.8486ZM56.9639 66H52.3203L52.3496 62.5723H56.9639C58.1162 62.5723 59.0879 62.3135 59.8789 61.7959C60.6699 61.2686 61.2656 60.502 61.666 59.4961C62.0762 58.4902 62.2812 57.2744 62.2812 55.8486V54.8086C62.2812 53.7148 62.1641 52.7529 61.9297 51.9229C61.7051 51.0928 61.3682 50.3945 60.9189 49.8281C60.4697 49.2617 59.918 48.8369 59.2637 48.5537C58.6094 48.2607 57.8574 48.1143 57.0078 48.1143H52.2324V44.6719H57.0078C58.4336 44.6719 59.7373 44.916 60.9189 45.4043C62.1104 45.8828 63.1406 46.5713 64.0098 47.4697C64.8789 48.3682 65.5479 49.4424 66.0166 50.6924C66.4951 51.9326 66.7344 53.3145 66.7344 54.8379V55.8486C66.7344 57.3623 66.4951 58.7441 66.0166 59.9941C65.5479 61.2441 64.8789 62.3184 64.0098 63.2168C63.1504 64.1055 62.1201 64.7939 60.9189 65.2822C59.7275 65.7607 58.4092 66 56.9639 66ZM54.8105 44.6719V66H50.416V44.6719H54.8105ZM87.4473 54.8379V55.8486C87.4473 57.4697 87.2275 58.9248 86.7881 60.2139C86.3486 61.5029 85.7285 62.6016 84.9277 63.5098C84.127 64.4082 83.1699 65.0967 82.0566 65.5752C80.9531 66.0537 79.7275 66.293 78.3799 66.293C77.042 66.293 75.8164 66.0537 74.7031 65.5752C73.5996 65.0967 72.6426 64.4082 71.832 63.5098C71.0215 62.6016 70.3916 61.5029 69.9424 60.2139C69.5029 58.9248 69.2832 57.4697 69.2832 55.8486V54.8379C69.2832 53.207 69.5029 51.752 69.9424 50.4727C70.3818 49.1836 71.002 48.085 71.8027 47.1768C72.6133 46.2686 73.5703 45.5752 74.6738 45.0967C75.7871 44.6182 77.0127 44.3789 78.3506 44.3789C79.6982 44.3789 80.9238 44.6182 82.0273 45.0967C83.1406 45.5752 84.0977 46.2686 84.8984 47.1768C85.709 48.085 86.334 49.1836 86.7734 50.4727C87.2227 51.752 87.4473 53.207 87.4473 54.8379ZM83.0088 55.8486V54.8086C83.0088 53.6758 82.9062 52.6797 82.7012 51.8203C82.4961 50.9609 82.1934 50.2383 81.793 49.6523C81.3926 49.0664 80.9043 48.627 80.3281 48.334C79.752 48.0312 79.0928 47.8799 78.3506 47.8799C77.6084 47.8799 76.9492 48.0312 76.373 48.334C75.8066 48.627 75.3232 49.0664 74.9229 49.6523C74.5322 50.2383 74.2344 50.9609 74.0293 51.8203C73.8242 52.6797 73.7217 53.6758 73.7217 54.8086V55.8486C73.7217 56.9717 73.8242 57.9678 74.0293 58.8369C74.2344 59.6963 74.5371 60.4238 74.9375 61.0195C75.3379 61.6055 75.8262 62.0498 76.4023 62.3525C76.9785 62.6553 77.6377 62.8066 78.3799 62.8066C79.1221 62.8066 79.7812 62.6553 80.3574 62.3525C80.9336 62.0498 81.417 61.6055 81.8076 61.0195C82.1982 60.4238 82.4961 59.6963 82.7012 58.8369C82.9062 57.9678 83.0088 56.9717 83.0088 55.8486ZM101.715 60.4189C101.715 60.0381 101.656 59.6963 101.539 59.3936C101.432 59.0811 101.227 58.7979 100.924 58.5439C100.621 58.2803 100.196 58.0215 99.6494 57.7676C99.1025 57.5137 98.3945 57.25 97.5254 56.9766C96.5586 56.6641 95.6406 56.3125 94.7715 55.9219C93.9121 55.5312 93.1504 55.0771 92.4863 54.5596C91.832 54.0322 91.3145 53.4219 90.9336 52.7285C90.5625 52.0352 90.377 51.2295 90.377 50.3115C90.377 49.4229 90.5723 48.6172 90.9629 47.8945C91.3535 47.1621 91.9004 46.5371 92.6035 46.0195C93.3066 45.4922 94.1367 45.0869 95.0938 44.8037C96.0605 44.5205 97.1201 44.3789 98.2725 44.3789C99.8447 44.3789 101.217 44.6621 102.389 45.2285C103.561 45.7949 104.469 46.5713 105.113 47.5576C105.768 48.5439 106.095 49.6719 106.095 50.9414H101.729C101.729 50.3164 101.598 49.7695 101.334 49.3008C101.08 48.8223 100.689 48.4463 100.162 48.1729C99.6445 47.8994 98.9902 47.7627 98.1992 47.7627C97.4375 47.7627 96.8027 47.8799 96.2949 48.1143C95.7871 48.3389 95.4062 48.6465 95.1523 49.0371C94.8984 49.418 94.7715 49.8477 94.7715 50.3262C94.7715 50.6875 94.8594 51.0146 95.0352 51.3076C95.2207 51.6006 95.4941 51.874 95.8555 52.1279C96.2168 52.3818 96.6611 52.6211 97.1885 52.8457C97.7158 53.0703 98.3262 53.29 99.0195 53.5049C100.182 53.8564 101.202 54.252 102.081 54.6914C102.97 55.1309 103.712 55.624 104.308 56.1709C104.903 56.7178 105.353 57.3379 105.655 58.0312C105.958 58.7246 106.109 59.5107 106.109 60.3896C106.109 61.3174 105.929 62.1475 105.567 62.8799C105.206 63.6123 104.684 64.2324 104 64.7402C103.316 65.248 102.501 65.6338 101.554 65.8975C100.606 66.1611 99.5469 66.293 98.375 66.293C97.3203 66.293 96.2803 66.1562 95.2549 65.8828C94.2295 65.5996 93.2969 65.1748 92.457 64.6084C91.627 64.042 90.9629 63.3193 90.4648 62.4404C89.9668 61.5615 89.7178 60.5215 89.7178 59.3203H94.127C94.127 59.9844 94.2295 60.5459 94.4346 61.0049C94.6396 61.4639 94.9277 61.835 95.2988 62.1182C95.6797 62.4014 96.1289 62.6064 96.6465 62.7334C97.1738 62.8604 97.75 62.9238 98.375 62.9238C99.1367 62.9238 99.7617 62.8164 100.25 62.6016C100.748 62.3867 101.114 62.0889 101.349 61.708C101.593 61.3271 101.715 60.8975 101.715 60.4189ZM134.088 54.8379V55.8486C134.088 57.4697 133.868 58.9248 133.429 60.2139C132.989 61.5029 132.369 62.6016 131.568 63.5098C130.768 64.4082 129.811 65.0967 128.697 65.5752C127.594 66.0537 126.368 66.293 125.021 66.293C123.683 66.293 122.457 66.0537 121.344 65.5752C120.24 65.0967 119.283 64.4082 118.473 63.5098C117.662 62.6016 117.032 61.5029 116.583 60.2139C116.144 58.9248 115.924 57.4697 115.924 55.8486V54.8379C115.924 53.207 116.144 51.752 116.583 50.4727C117.022 49.1836 117.643 48.085 118.443 47.1768C119.254 46.2686 120.211 45.5752 121.314 45.0967C122.428 44.6182 123.653 44.3789 124.991 44.3789C126.339 44.3789 127.564 44.6182 128.668 45.0967C129.781 45.5752 130.738 46.2686 131.539 47.1768C132.35 48.085 132.975 49.1836 133.414 50.4727C133.863 51.752 134.088 53.207 134.088 54.8379ZM129.649 55.8486V54.8086C129.649 53.6758 129.547 52.6797 129.342 51.8203C129.137 50.9609 128.834 50.2383 128.434 49.6523C128.033 49.0664 127.545 48.627 126.969 48.334C126.393 48.0312 125.733 47.8799 124.991 47.8799C124.249 47.8799 123.59 48.0312 123.014 48.334C122.447 48.627 121.964 49.0664 121.563 49.6523C121.173 50.2383 120.875 50.9609 120.67 51.8203C120.465 52.6797 120.362 53.6758 120.362 54.8086V55.8486C120.362 56.9717 120.465 57.9678 120.67 58.8369C120.875 59.6963 121.178 60.4238 121.578 61.0195C121.979 61.6055 122.467 62.0498 123.043 62.3525C123.619 62.6553 124.278 62.8066 125.021 62.8066C125.763 62.8066 126.422 62.6553 126.998 62.3525C127.574 62.0498 128.058 61.6055 128.448 61.0195C128.839 60.4238 129.137 59.6963 129.342 58.8369C129.547 57.9678 129.649 56.9717 129.649 55.8486ZM148.355 60.4189C148.355 60.0381 148.297 59.6963 148.18 59.3936C148.072 59.0811 147.867 58.7979 147.564 58.5439C147.262 58.2803 146.837 58.0215 146.29 57.7676C145.743 57.5137 145.035 57.25 144.166 56.9766C143.199 56.6641 142.281 56.3125 141.412 55.9219C140.553 55.5312 139.791 55.0771 139.127 54.5596C138.473 54.0322 137.955 53.4219 137.574 52.7285C137.203 52.0352 137.018 51.2295 137.018 50.3115C137.018 49.4229 137.213 48.6172 137.604 47.8945C137.994 47.1621 138.541 46.5371 139.244 46.0195C139.947 45.4922 140.777 45.0869 141.734 44.8037C142.701 44.5205 143.761 44.3789 144.913 44.3789C146.485 44.3789 147.857 44.6621 149.029 45.2285C150.201 45.7949 151.109 46.5713 151.754 47.5576C152.408 48.5439 152.735 49.6719 152.735 50.9414H148.37C148.37 50.3164 148.238 49.7695 147.975 49.3008C147.721 48.8223 147.33 48.4463 146.803 48.1729C146.285 47.8994 145.631 47.7627 144.84 47.7627C144.078 47.7627 143.443 47.8799 142.936 48.1143C142.428 48.3389 142.047 48.6465 141.793 49.0371C141.539 49.418 141.412 49.8477 141.412 50.3262C141.412 50.6875 141.5 51.0146 141.676 51.3076C141.861 51.6006 142.135 51.874 142.496 52.1279C142.857 52.3818 143.302 52.6211 143.829 52.8457C144.356 53.0703 144.967 53.29 145.66 53.5049C146.822 53.8564 147.843 54.252 148.722 54.6914C149.61 55.1309 150.353 55.624 150.948 56.1709C151.544 56.7178 151.993 57.3379 152.296 58.0312C152.599 58.7246 152.75 59.5107 152.75 60.3896C152.75 61.3174 152.569 62.1475 152.208 62.8799C151.847 63.6123 151.324 64.2324 150.641 64.7402C149.957 65.248 149.142 65.6338 148.194 65.8975C147.247 66.1611 146.188 66.293 145.016 66.293C143.961 66.293 142.921 66.1562 141.896 65.8828C140.87 65.5996 139.938 65.1748 139.098 64.6084C138.268 64.042 137.604 63.3193 137.105 62.4404C136.607 61.5615 136.358 60.5215 136.358 59.3203H140.768C140.768 59.9844 140.87 60.5459 141.075 61.0049C141.28 61.4639 141.568 61.835 141.939 62.1182C142.32 62.4014 142.77 62.6064 143.287 62.7334C143.814 62.8604 144.391 62.9238 145.016 62.9238C145.777 62.9238 146.402 62.8164 146.891 62.6016C147.389 62.3867 147.755 62.0889 147.989 61.708C148.233 61.3271 148.355 60.8975 148.355 60.4189ZM171.837 59.4521V44.6719H176.217V59.4521C176.217 60.8779 175.904 62.1035 175.279 63.1289C174.654 64.1445 173.8 64.9258 172.716 65.4727C171.642 66.0195 170.431 66.293 169.083 66.293C167.687 66.293 166.451 66.0586 165.377 65.5898C164.303 65.1211 163.458 64.4033 162.843 63.4365C162.228 62.46 161.92 61.2246 161.92 59.7305H166.329C166.329 60.5117 166.437 61.1318 166.651 61.5908C166.876 62.0498 167.193 62.377 167.604 62.5723C168.014 62.7676 168.507 62.8652 169.083 62.8652C169.64 62.8652 170.123 62.7334 170.533 62.4697C170.943 62.2061 171.261 61.8203 171.485 61.3125C171.72 60.8047 171.837 60.1846 171.837 59.4521ZM197.486 54.8379V55.8486C197.486 57.4697 197.267 58.9248 196.827 60.2139C196.388 61.5029 195.768 62.6016 194.967 63.5098C194.166 64.4082 193.209 65.0967 192.096 65.5752C190.992 66.0537 189.767 66.293 188.419 66.293C187.081 66.293 185.855 66.0537 184.742 65.5752C183.639 65.0967 182.682 64.4082 181.871 63.5098C181.061 62.6016 180.431 61.5029 179.981 60.2139C179.542 58.9248 179.322 57.4697 179.322 55.8486V54.8379C179.322 53.207 179.542 51.752 179.981 50.4727C180.421 49.1836 181.041 48.085 181.842 47.1768C182.652 46.2686 183.609 45.5752 184.713 45.0967C185.826 44.6182 187.052 44.3789 188.39 44.3789C189.737 44.3789 190.963 44.6182 192.066 45.0967C193.18 45.5752 194.137 46.2686 194.938 47.1768C195.748 48.085 196.373 49.1836 196.812 50.4727C197.262 51.752 197.486 53.207 197.486 54.8379ZM193.048 55.8486V54.8086C193.048 53.6758 192.945 52.6797 192.74 51.8203C192.535 50.9609 192.232 50.2383 191.832 49.6523C191.432 49.0664 190.943 48.627 190.367 48.334C189.791 48.0312 189.132 47.8799 188.39 47.8799C187.647 47.8799 186.988 48.0312 186.412 48.334C185.846 48.627 185.362 49.0664 184.962 49.6523C184.571 50.2383 184.273 50.9609 184.068 51.8203C183.863 52.6797 183.761 53.6758 183.761 54.8086V55.8486C183.761 56.9717 183.863 57.9678 184.068 58.8369C184.273 59.6963 184.576 60.4238 184.977 61.0195C185.377 61.6055 185.865 62.0498 186.441 62.3525C187.018 62.6553 187.677 62.8066 188.419 62.8066C189.161 62.8066 189.82 62.6553 190.396 62.3525C190.973 62.0498 191.456 61.6055 191.847 61.0195C192.237 60.4238 192.535 59.6963 192.74 58.8369C192.945 57.9678 193.048 56.9717 193.048 55.8486ZM217.555 54.8525V63.3047C217.223 63.7051 216.71 64.1396 216.017 64.6084C215.323 65.0674 214.43 65.4629 213.336 65.7949C212.242 66.127 210.919 66.293 209.366 66.293C207.989 66.293 206.734 66.0684 205.602 65.6191C204.469 65.1602 203.492 64.4912 202.672 63.6123C201.861 62.7334 201.236 61.6592 200.797 60.3896C200.357 59.1104 200.138 57.6504 200.138 56.0098V54.6768C200.138 53.0361 200.348 51.5762 200.768 50.2969C201.197 49.0176 201.808 47.9385 202.599 47.0596C203.39 46.1807 204.332 45.5117 205.426 45.0527C206.52 44.5938 207.735 44.3643 209.073 44.3643C210.929 44.3643 212.452 44.667 213.644 45.2725C214.835 45.8682 215.743 46.6982 216.368 47.7627C217.003 48.8174 217.394 50.0283 217.54 51.3955H213.277C213.17 50.6729 212.965 50.043 212.662 49.5059C212.359 48.9688 211.925 48.5488 211.358 48.2461C210.802 47.9434 210.079 47.792 209.19 47.792C208.458 47.792 207.804 47.9434 207.228 48.2461C206.661 48.5391 206.183 48.9736 205.792 49.5498C205.401 50.126 205.104 50.8389 204.898 51.6885C204.693 52.5381 204.591 53.5244 204.591 54.6475V56.0098C204.591 57.123 204.698 58.1094 204.913 58.9688C205.128 59.8184 205.445 60.5361 205.865 61.1221C206.295 61.6982 206.822 62.1328 207.447 62.4258C208.072 62.7188 208.8 62.8652 209.63 62.8652C210.323 62.8652 210.899 62.8066 211.358 62.6895C211.827 62.5723 212.203 62.4307 212.486 62.2646C212.779 62.0889 213.004 61.9229 213.16 61.7666V57.9873H209.146V54.8525H217.555ZM238.619 54.8379V55.8486C238.619 57.4697 238.399 58.9248 237.96 60.2139C237.521 61.5029 236.9 62.6016 236.1 63.5098C235.299 64.4082 234.342 65.0967 233.229 65.5752C232.125 66.0537 230.899 66.293 229.552 66.293C228.214 66.293 226.988 66.0537 225.875 65.5752C224.771 65.0967 223.814 64.4082 223.004 63.5098C222.193 62.6016 221.563 61.5029 221.114 60.2139C220.675 58.9248 220.455 57.4697 220.455 55.8486V54.8379C220.455 53.207 220.675 51.752 221.114 50.4727C221.554 49.1836 222.174 48.085 222.975 47.1768C223.785 46.2686 224.742 45.5752 225.846 45.0967C226.959 44.6182 228.185 44.3789 229.522 44.3789C230.87 44.3789 232.096 44.6182 233.199 45.0967C234.312 45.5752 235.27 46.2686 236.07 47.1768C236.881 48.085 237.506 49.1836 237.945 50.4727C238.395 51.752 238.619 53.207 238.619 54.8379ZM234.181 55.8486V54.8086C234.181 53.6758 234.078 52.6797 233.873 51.8203C233.668 50.9609 233.365 50.2383 232.965 49.6523C232.564 49.0664 232.076 48.627 231.5 48.334C230.924 48.0312 230.265 47.8799 229.522 47.8799C228.78 47.8799 228.121 48.0312 227.545 48.334C226.979 48.627 226.495 49.0664 226.095 49.6523C225.704 50.2383 225.406 50.9609 225.201 51.8203C224.996 52.6797 224.894 53.6758 224.894 54.8086V55.8486C224.894 56.9717 224.996 57.9678 225.201 58.8369C225.406 59.6963 225.709 60.4238 226.109 61.0195C226.51 61.6055 226.998 62.0498 227.574 62.3525C228.15 62.6553 228.81 62.8066 229.552 62.8066C230.294 62.8066 230.953 62.6553 231.529 62.3525C232.105 62.0498 232.589 61.6055 232.979 61.0195C233.37 60.4238 233.668 59.6963 233.873 58.8369C234.078 57.9678 234.181 56.9717 234.181 55.8486ZM252.887 60.4189C252.887 60.0381 252.828 59.6963 252.711 59.3936C252.604 59.0811 252.398 58.7979 252.096 58.5439C251.793 58.2803 251.368 58.0215 250.821 57.7676C250.274 57.5137 249.566 57.25 248.697 56.9766C247.73 56.6641 246.812 56.3125 245.943 55.9219C245.084 55.5312 244.322 55.0771 243.658 54.5596C243.004 54.0322 242.486 53.4219 242.105 52.7285C241.734 52.0352 241.549 51.2295 241.549 50.3115C241.549 49.4229 241.744 48.6172 242.135 47.8945C242.525 47.1621 243.072 46.5371 243.775 46.0195C244.479 45.4922 245.309 45.0869 246.266 44.8037C247.232 44.5205 248.292 44.3789 249.444 44.3789C251.017 44.3789 252.389 44.6621 253.561 45.2285C254.732 45.7949 255.641 46.5713 256.285 47.5576C256.939 48.5439 257.267 49.6719 257.267 50.9414H252.901C252.901 50.3164 252.77 49.7695 252.506 49.3008C252.252 48.8223 251.861 48.4463 251.334 48.1729C250.816 47.8994 250.162 47.7627 249.371 47.7627C248.609 47.7627 247.975 47.8799 247.467 48.1143C246.959 48.3389 246.578 48.6465 246.324 49.0371C246.07 49.418 245.943 49.8477 245.943 50.3262C245.943 50.6875 246.031 51.0146 246.207 51.3076C246.393 51.6006 246.666 51.874 247.027 52.1279C247.389 52.3818 247.833 52.6211 248.36 52.8457C248.888 53.0703 249.498 53.29 250.191 53.5049C251.354 53.8564 252.374 54.252 253.253 54.6914C254.142 55.1309 254.884 55.624 255.479 56.1709C256.075 56.7178 256.524 57.3379 256.827 58.0312C257.13 58.7246 257.281 59.5107 257.281 60.3896C257.281 61.3174 257.101 62.1475 256.739 62.8799C256.378 63.6123 255.855 64.2324 255.172 64.7402C254.488 65.248 253.673 65.6338 252.726 65.8975C251.778 66.1611 250.719 66.293 249.547 66.293C248.492 66.293 247.452 66.1562 246.427 65.8828C245.401 65.5996 244.469 65.1748 243.629 64.6084C242.799 64.042 242.135 63.3193 241.637 62.4404C241.139 61.5615 240.89 60.5215 240.89 59.3203H245.299C245.299 59.9844 245.401 60.5459 245.606 61.0049C245.812 61.4639 246.1 61.835 246.471 62.1182C246.852 62.4014 247.301 62.6064 247.818 62.7334C248.346 62.8604 248.922 62.9238 249.547 62.9238C250.309 62.9238 250.934 62.8164 251.422 62.6016C251.92 62.3867 252.286 62.0889 252.521 61.708C252.765 61.3271 252.887 60.8975 252.887 60.4189Z" fill="url(#paint0_linear_122_239)"/>
<defs>
<linearGradient id="paint0_linear_122_239" x1="134" y1="37" x2="134" y2="76" gradientUnits="userSpaceOnUse">
<stop stop-color="white"/>
<stop offset="1" stop-color="#D9D9D9" stop-opacity="0.8"/>
</linearGradient>
</defs>
</svg>

