<svg width="268" height="89" viewBox="0 0 268 89" fill="none" xmlns="http://www.w3.org/2000/svg">
<path d="M103.481 29.997C100.356 29.997 97.073 29.4292 94.5 28.0618V3.93528C97.0327 2.60648 100.316 2.00004 103.481 2.00004C106.646 2.00004 109.851 2.56783 112.381 3.93528V13.1923H106.01V6.89312C105.26 6.58991 104.349 6.47695 103.44 6.47695C102.532 6.47695 101.698 6.58991 100.908 6.89312V25.1039C101.658 25.4072 102.529 25.5201 103.44 25.5201C104.352 25.5201 105.22 25.4072 106.01 25.1039V18.8077H112.381V28.0648C109.888 29.3936 106.605 29.9614 103.481 30V29.997Z" fill="#F7DD43"/>
<path d="M124.328 29.997C120.965 29.997 117.722 29.3133 115.149 27.9101V4.0482C117.682 2.68372 120.927 2 124.328 2C127.729 2 130.894 2.64508 133.427 4.0482V27.9101C130.934 29.3133 127.651 29.9583 124.328 29.997ZM127.059 6.97037C126.309 6.66715 125.398 6.51555 124.291 6.51555C123.184 6.51555 122.313 6.66715 121.56 6.97037V24.9909C122.31 25.3328 123.221 25.4844 124.291 25.4844C125.36 25.4844 126.269 25.3328 127.059 24.9909V6.97037Z" fill="#F7DD43"/>
<path d="M144.543 19.753H142.841V29.6551H136.393V2.34188H144.543C148.421 2.34188 151.348 3.09992 153.642 4.65465V17.4403C151.388 18.9593 148.418 19.753 144.543 19.753ZM147.234 7.04471C146.642 6.62853 145.848 6.43827 144.503 6.43827H142.761V15.6566H144.503C145.808 15.6566 146.598 15.4664 147.234 15.0889V7.04471Z" fill="#F7DD43"/>
<path d="M167.13 29.6551V19.753H162.383V29.6551H155.976V4.00955C158.31 2.68075 161.593 2 164.758 2C167.923 2 171.166 2.68372 173.5 4.00955V29.6551H167.13ZM167.13 6.74147C166.457 6.43826 165.626 6.28665 164.755 6.28665C163.884 6.28665 163.053 6.43826 162.38 6.74147V15.4277H167.126V6.74147H167.13Z" fill="#F7DD43"/>
<path d="M36.6318 58.3975H31.1973V54.9697H36.6318C37.4717 54.9697 38.1553 54.833 38.6826 54.5596C39.21 54.2764 39.5957 53.8857 39.8398 53.3877C40.084 52.8896 40.2061 52.3281 40.2061 51.7031C40.2061 51.0684 40.084 50.4775 39.8398 49.9307C39.5957 49.3838 39.21 48.9443 38.6826 48.6123C38.1553 48.2803 37.4717 48.1143 36.6318 48.1143H32.7207V66H28.3262V44.6719H36.6318C38.3018 44.6719 39.7324 44.9746 40.9238 45.5801C42.125 46.1758 43.043 47.001 43.6777 48.0557C44.3125 49.1104 44.6299 50.3164 44.6299 51.6738C44.6299 53.0508 44.3125 54.2422 43.6777 55.248C43.043 56.2539 42.125 57.0303 40.9238 57.5771C39.7324 58.124 38.3018 58.3975 36.6318 58.3975ZM61.373 62.5723V66H50.6357V62.5723H61.373ZM52.0566 44.6719V66H47.6621V44.6719H52.0566ZM72.8574 48.3193L67.0566 66H62.3838L70.3086 44.6719H73.2822L72.8574 48.3193ZM77.6768 66L71.8613 48.3193L71.3926 44.6719H74.3955L82.3643 66H77.6768ZM77.4131 58.0605V61.5029H66.1484V58.0605H77.4131ZM96.4414 58.9248H100.821C100.733 60.3604 100.338 61.6348 99.6348 62.748C98.9414 63.8613 97.9697 64.7305 96.7197 65.3555C95.4795 65.9805 93.9854 66.293 92.2373 66.293C90.8701 66.293 89.6445 66.0586 88.5605 65.5898C87.4766 65.1113 86.5488 64.4277 85.7773 63.5391C85.0156 62.6504 84.4346 61.5762 84.0342 60.3164C83.6338 59.0566 83.4336 57.6455 83.4336 56.083V54.6035C83.4336 53.041 83.6387 51.6299 84.0488 50.3701C84.4688 49.1006 85.0645 48.0215 85.8359 47.1328C86.6172 46.2441 87.5498 45.5605 88.6338 45.082C89.7178 44.6035 90.9287 44.3643 92.2666 44.3643C94.0439 44.3643 95.543 44.6865 96.7637 45.3311C97.9941 45.9756 98.9463 46.8643 99.6201 47.9971C100.304 49.1299 100.714 50.4189 100.851 51.8643H96.4561C96.4072 51.0049 96.2363 50.2773 95.9434 49.6816C95.6504 49.0762 95.2061 48.6221 94.6104 48.3193C94.0244 48.0068 93.2432 47.8506 92.2666 47.8506C91.5342 47.8506 90.8945 47.9873 90.3477 48.2607C89.8008 48.5342 89.3418 48.9492 88.9707 49.5059C88.5996 50.0625 88.3213 50.7656 88.1357 51.6152C87.96 52.4551 87.8721 53.4414 87.8721 54.5742V56.083C87.8721 57.1865 87.9551 58.1582 88.1211 58.998C88.2871 59.8281 88.541 60.5312 88.8828 61.1074C89.2344 61.6738 89.6836 62.1035 90.2305 62.3965C90.7871 62.6797 91.4561 62.8213 92.2373 62.8213C93.1553 62.8213 93.9121 62.6748 94.5078 62.3818C95.1035 62.0889 95.5576 61.6543 95.8701 61.0781C96.1924 60.502 96.3828 59.7842 96.4414 58.9248ZM112.379 48.3193L106.578 66H101.905L109.83 44.6719H112.804L112.379 48.3193ZM117.198 66L111.383 48.3193L110.914 44.6719H113.917L121.886 66H117.198ZM116.935 58.0605V61.5029H105.67V58.0605H116.935ZM123.863 44.6719H131.817C133.448 44.6719 134.85 44.916 136.021 45.4043C137.203 45.8926 138.111 46.6152 138.746 47.5723C139.381 48.5293 139.698 49.7061 139.698 51.1025C139.698 52.2451 139.503 53.2266 139.112 54.0469C138.731 54.8574 138.189 55.5361 137.486 56.083C136.793 56.6201 135.978 57.0498 135.04 57.3721L133.648 58.1045H126.734L126.705 54.6768H131.847C132.618 54.6768 133.258 54.54 133.766 54.2666C134.273 53.9932 134.654 53.6123 134.908 53.124C135.172 52.6357 135.304 52.0693 135.304 51.4248C135.304 50.7412 135.177 50.1504 134.923 49.6523C134.669 49.1543 134.283 48.7734 133.766 48.5098C133.248 48.2461 132.599 48.1143 131.817 48.1143H128.258V66H123.863V44.6719ZM135.787 66L130.924 56.4932L135.567 56.4639L140.489 65.7949V66H135.787ZM167.457 54.8525V63.3047C167.125 63.7051 166.612 64.1396 165.919 64.6084C165.226 65.0674 164.332 65.4629 163.238 65.7949C162.145 66.127 160.821 66.293 159.269 66.293C157.892 66.293 156.637 66.0684 155.504 65.6191C154.371 65.1602 153.395 64.4912 152.574 63.6123C151.764 62.7334 151.139 61.6592 150.699 60.3896C150.26 59.1104 150.04 57.6504 150.04 56.0098V54.6768C150.04 53.0361 150.25 51.5762 150.67 50.2969C151.1 49.0176 151.71 47.9385 152.501 47.0596C153.292 46.1807 154.234 45.5117 155.328 45.0527C156.422 44.5938 157.638 44.3643 158.976 44.3643C160.831 44.3643 162.354 44.667 163.546 45.2725C164.737 45.8682 165.646 46.6982 166.271 47.7627C166.905 48.8174 167.296 50.0283 167.442 51.3955H163.18C163.072 50.6729 162.867 50.043 162.564 49.5059C162.262 48.9688 161.827 48.5488 161.261 48.2461C160.704 47.9434 159.981 47.792 159.093 47.792C158.36 47.792 157.706 47.9434 157.13 48.2461C156.563 48.5391 156.085 48.9736 155.694 49.5498C155.304 50.126 155.006 50.8389 154.801 51.6885C154.596 52.5381 154.493 53.5244 154.493 54.6475V56.0098C154.493 57.123 154.601 58.1094 154.815 58.9688C155.03 59.8184 155.348 60.5361 155.768 61.1221C156.197 61.6982 156.725 62.1328 157.35 62.4258C157.975 62.7188 158.702 62.8652 159.532 62.8652C160.226 62.8652 160.802 62.8066 161.261 62.6895C161.729 62.5723 162.105 62.4307 162.389 62.2646C162.682 62.0889 162.906 61.9229 163.062 61.7666V57.9873H159.049V54.8525H167.457ZM185.313 62.5723V66H173.961V62.5723H185.313ZM175.396 44.6719V66H171.002V44.6719H175.396ZM183.834 53.3584V56.6982H173.961V53.3584H183.834ZM185.299 44.6719V48.1143H173.961V44.6719H185.299ZM187.877 44.6719H195.831C197.462 44.6719 198.863 44.916 200.035 45.4043C201.217 45.8926 202.125 46.6152 202.76 47.5723C203.395 48.5293 203.712 49.7061 203.712 51.1025C203.712 52.2451 203.517 53.2266 203.126 54.0469C202.745 54.8574 202.203 55.5361 201.5 56.083C200.807 56.6201 199.991 57.0498 199.054 57.3721L197.662 58.1045H190.748L190.719 54.6768H195.86C196.632 54.6768 197.271 54.54 197.779 54.2666C198.287 53.9932 198.668 53.6123 198.922 53.124C199.186 52.6357 199.317 52.0693 199.317 51.4248C199.317 50.7412 199.19 50.1504 198.937 49.6523C198.683 49.1543 198.297 48.7734 197.779 48.5098C197.262 48.2461 196.612 48.1143 195.831 48.1143H192.271V66H187.877V44.6719ZM199.801 66L194.938 56.4932L199.581 56.4639L204.503 65.7949V66H199.801ZM215.768 48.3193L209.967 66H205.294L213.219 44.6719H216.192L215.768 48.3193ZM220.587 66L214.771 48.3193L214.303 44.6719H217.306L225.274 66H220.587ZM220.323 58.0605V61.5029H209.059V58.0605H220.323ZM240.963 62.5723V66H230.226V62.5723H240.963ZM231.646 44.6719V66H227.252V44.6719H231.646Z" fill="url(#paint0_linear_122_239)"/>
<defs>
<linearGradient id="paint0_linear_122_239" x1="134" y1="37" x2="134" y2="76" gradientUnits="userSpaceOnUse">
<stop stop-color="white"/>
<stop offset="1" stop-color="#D9D9D9" stop-opacity="0.8"/>
</linearGradient>
</defs>
</svg>
