<svg width="268" height="89" viewBox="0 0 268 89" fill="none" xmlns="http://www.w3.org/2000/svg">
<path d="M103.481 29.997C100.356 29.997 97.073 29.4292 94.5 28.0618V3.93528C97.0327 2.60648 100.316 2.00004 103.481 2.00004C106.646 2.00004 109.851 2.56783 112.381 3.93528V13.1923H106.01V6.89312C105.26 6.58991 104.349 6.47695 103.44 6.47695C102.532 6.47695 101.698 6.58991 100.908 6.89312V25.1039C101.658 25.4072 102.529 25.5201 103.44 25.5201C104.352 25.5201 105.22 25.4072 106.01 25.1039V18.8077H112.381V28.0648C109.888 29.3936 106.605 29.9614 103.481 30V29.997Z" fill="#F7DD43"/>
<path d="M124.328 29.997C120.965 29.997 117.722 29.3133 115.149 27.9101V4.0482C117.682 2.68372 120.927 2 124.328 2C127.729 2 130.894 2.64508 133.427 4.0482V27.9101C130.934 29.3133 127.651 29.9583 124.328 29.997ZM127.059 6.97037C126.309 6.66715 125.398 6.51555 124.291 6.51555C123.184 6.51555 122.313 6.66715 121.56 6.97037V24.9909C122.31 25.3328 123.221 25.4844 124.291 25.4844C125.36 25.4844 126.269 25.3328 127.059 24.9909V6.97037Z" fill="#F7DD43"/>
<path d="M144.543 19.753H142.841V29.6551H136.393V2.34188H144.543C148.421 2.34188 151.348 3.09992 153.642 4.65465V17.4403C151.388 18.9593 148.418 19.753 144.543 19.753ZM147.234 7.04471C146.642 6.62853 145.848 6.43827 144.503 6.43827H142.761V15.6566H144.503C145.808 15.6566 146.598 15.4664 147.234 15.0889V7.04471Z" fill="#F7DD43"/>
<path d="M167.13 29.6551V19.753H162.383V29.6551H155.976V4.00955C158.31 2.68075 161.593 2 164.758 2C167.923 2 171.166 2.68372 173.5 4.00955V29.6551H167.13ZM167.13 6.74147C166.457 6.43826 165.626 6.28665 164.755 6.28665C163.884 6.28665 163.053 6.43826 162.38 6.74147V15.4277H167.126V6.74147H167.13Z" fill="#F7DD43"/>
<path d="M32.0762 58.3975H26.6416V54.9697H32.0762C32.916 54.9697 33.5996 54.833 34.127 54.5596C34.6543 54.2764 35.04 53.8857 35.2842 53.3877C35.5283 52.8896 35.6504 52.3281 35.6504 51.7031C35.6504 51.0684 35.5283 50.4775 35.2842 49.9307C35.04 49.3838 34.6543 48.9443 34.127 48.6123C33.5996 48.2803 32.916 48.1143 32.0762 48.1143H28.165V66H23.7705V44.6719H32.0762C33.7461 44.6719 35.1768 44.9746 36.3682 45.5801C37.5693 46.1758 38.4873 47.001 39.1221 48.0557C39.7568 49.1104 40.0742 50.3164 40.0742 51.6738C40.0742 53.0508 39.7568 54.2422 39.1221 55.248C38.4873 56.2539 37.5693 57.0303 36.3682 57.5771C35.1768 58.124 33.7461 58.3975 32.0762 58.3975ZM56.8174 62.5723V66H46.0801V62.5723H56.8174ZM47.501 44.6719V66H43.1064V44.6719H47.501ZM68.3018 48.3193L62.501 66H57.8281L65.7529 44.6719H68.7266L68.3018 48.3193ZM73.1211 66L67.3057 48.3193L66.8369 44.6719H69.8398L77.8086 66H73.1211ZM72.8574 58.0605V61.5029H61.5928V58.0605H72.8574ZM91.8857 58.9248H96.2656C96.1777 60.3604 95.7822 61.6348 95.0791 62.748C94.3857 63.8613 93.4141 64.7305 92.1641 65.3555C90.9238 65.9805 89.4297 66.293 87.6816 66.293C86.3145 66.293 85.0889 66.0586 84.0049 65.5898C82.9209 65.1113 81.9932 64.4277 81.2217 63.5391C80.46 62.6504 79.8789 61.5762 79.4785 60.3164C79.0781 59.0566 78.8779 57.6455 78.8779 56.083V54.6035C78.8779 53.041 79.083 51.6299 79.4932 50.3701C79.9131 49.1006 80.5088 48.0215 81.2803 47.1328C82.0615 46.2441 82.9941 45.5605 84.0781 45.082C85.1621 44.6035 86.373 44.3643 87.7109 44.3643C89.4883 44.3643 90.9873 44.6865 92.208 45.3311C93.4385 45.9756 94.3906 46.8643 95.0645 47.9971C95.748 49.1299 96.1582 50.4189 96.2949 51.8643H91.9004C91.8516 51.0049 91.6807 50.2773 91.3877 49.6816C91.0947 49.0762 90.6504 48.6221 90.0547 48.3193C89.4688 48.0068 88.6875 47.8506 87.7109 47.8506C86.9785 47.8506 86.3389 47.9873 85.792 48.2607C85.2451 48.5342 84.7861 48.9492 84.415 49.5059C84.0439 50.0625 83.7656 50.7656 83.5801 51.6152C83.4043 52.4551 83.3164 53.4414 83.3164 54.5742V56.083C83.3164 57.1865 83.3994 58.1582 83.5654 58.998C83.7314 59.8281 83.9854 60.5312 84.3271 61.1074C84.6787 61.6738 85.1279 62.1035 85.6748 62.3965C86.2314 62.6797 86.9004 62.8213 87.6816 62.8213C88.5996 62.8213 89.3564 62.6748 89.9521 62.3818C90.5479 62.0889 91.002 61.6543 91.3145 61.0781C91.6367 60.502 91.8271 59.7842 91.8857 58.9248ZM107.823 48.3193L102.022 66H97.3496L105.274 44.6719H108.248L107.823 48.3193ZM112.643 66L106.827 48.3193L106.358 44.6719H109.361L117.33 66H112.643ZM112.379 58.0605V61.5029H101.114V58.0605H112.379ZM119.308 44.6719H127.262C128.893 44.6719 130.294 44.916 131.466 45.4043C132.647 45.8926 133.556 46.6152 134.19 47.5723C134.825 48.5293 135.143 49.7061 135.143 51.1025C135.143 52.2451 134.947 53.2266 134.557 54.0469C134.176 54.8574 133.634 55.5361 132.931 56.083C132.237 56.6201 131.422 57.0498 130.484 57.3721L129.093 58.1045H122.179L122.149 54.6768H127.291C128.062 54.6768 128.702 54.54 129.21 54.2666C129.718 53.9932 130.099 53.6123 130.353 53.124C130.616 52.6357 130.748 52.0693 130.748 51.4248C130.748 50.7412 130.621 50.1504 130.367 49.6523C130.113 49.1543 129.728 48.7734 129.21 48.5098C128.692 48.2461 128.043 48.1143 127.262 48.1143H123.702V66H119.308V44.6719ZM131.231 66L126.368 56.4932L131.012 56.4639L135.934 65.7949V66H131.231ZM154.347 56.6396H148.868L148.839 53.6221H153.438C154.249 53.6221 154.913 53.5195 155.431 53.3145C155.948 53.0996 156.334 52.792 156.588 52.3916C156.852 51.9814 156.983 51.4834 156.983 50.8975C156.983 50.2334 156.856 49.6963 156.603 49.2861C156.358 48.876 155.973 48.5781 155.445 48.3926C154.928 48.207 154.259 48.1143 153.438 48.1143H150.392V66H145.997V44.6719H153.438C154.679 44.6719 155.787 44.7891 156.764 45.0234C157.75 45.2578 158.585 45.6143 159.269 46.0928C159.952 46.5713 160.475 47.1768 160.836 47.9092C161.197 48.6318 161.378 49.4912 161.378 50.4873C161.378 51.3662 161.178 52.1768 160.777 52.9189C160.387 53.6611 159.767 54.2666 158.917 54.7354C158.077 55.2041 156.979 55.4629 155.621 55.5117L154.347 56.6396ZM154.156 66H147.667L149.381 62.5723H154.156C154.928 62.5723 155.558 62.4502 156.046 62.2061C156.534 61.9521 156.896 61.6104 157.13 61.1807C157.364 60.751 157.481 60.2578 157.481 59.7012C157.481 59.0762 157.374 58.5342 157.159 58.0752C156.954 57.6162 156.622 57.2646 156.163 57.0205C155.704 56.7666 155.099 56.6396 154.347 56.6396H150.113L150.143 53.6221H155.416L156.427 54.8086C157.726 54.7891 158.771 55.0186 159.562 55.4971C160.362 55.9658 160.943 56.5762 161.305 57.3281C161.676 58.0801 161.861 58.8857 161.861 59.7451C161.861 61.1123 161.563 62.2646 160.968 63.2021C160.372 64.1299 159.498 64.8281 158.346 65.2969C157.203 65.7656 155.807 66 154.156 66ZM165.157 44.6719H173.111C174.742 44.6719 176.144 44.916 177.315 45.4043C178.497 45.8926 179.405 46.6152 180.04 47.5723C180.675 48.5293 180.992 49.7061 180.992 51.1025C180.992 52.2451 180.797 53.2266 180.406 54.0469C180.025 54.8574 179.483 55.5361 178.78 56.083C178.087 56.6201 177.271 57.0498 176.334 57.3721L174.942 58.1045H168.028L167.999 54.6768H173.141C173.912 54.6768 174.552 54.54 175.06 54.2666C175.567 53.9932 175.948 53.6123 176.202 53.124C176.466 52.6357 176.598 52.0693 176.598 51.4248C176.598 50.7412 176.471 50.1504 176.217 49.6523C175.963 49.1543 175.577 48.7734 175.06 48.5098C174.542 48.2461 173.893 48.1143 173.111 48.1143H169.552V66H165.157V44.6719ZM177.081 66L172.218 56.4932L176.861 56.4639L181.783 65.7949V66H177.081ZM193.048 48.3193L187.247 66H182.574L190.499 44.6719H193.473L193.048 48.3193ZM197.867 66L192.052 48.3193L191.583 44.6719H194.586L202.555 66H197.867ZM197.604 58.0605V61.5029H186.339V58.0605H197.604ZM215.636 60.4189C215.636 60.0381 215.577 59.6963 215.46 59.3936C215.353 59.0811 215.147 58.7979 214.845 58.5439C214.542 58.2803 214.117 58.0215 213.57 57.7676C213.023 57.5137 212.315 57.25 211.446 56.9766C210.479 56.6641 209.562 56.3125 208.692 55.9219C207.833 55.5312 207.071 55.0771 206.407 54.5596C205.753 54.0322 205.235 53.4219 204.854 52.7285C204.483 52.0352 204.298 51.2295 204.298 50.3115C204.298 49.4229 204.493 48.6172 204.884 47.8945C205.274 47.1621 205.821 46.5371 206.524 46.0195C207.228 45.4922 208.058 45.0869 209.015 44.8037C209.981 44.5205 211.041 44.3789 212.193 44.3789C213.766 44.3789 215.138 44.6621 216.31 45.2285C217.481 45.7949 218.39 46.5713 219.034 47.5576C219.688 48.5439 220.016 49.6719 220.016 50.9414H215.65C215.65 50.3164 215.519 49.7695 215.255 49.3008C215.001 48.8223 214.61 48.4463 214.083 48.1729C213.565 47.8994 212.911 47.7627 212.12 47.7627C211.358 47.7627 210.724 47.8799 210.216 48.1143C209.708 48.3389 209.327 48.6465 209.073 49.0371C208.819 49.418 208.692 49.8477 208.692 50.3262C208.692 50.6875 208.78 51.0146 208.956 51.3076C209.142 51.6006 209.415 51.874 209.776 52.1279C210.138 52.3818 210.582 52.6211 211.109 52.8457C211.637 53.0703 212.247 53.29 212.94 53.5049C214.103 53.8564 215.123 54.252 216.002 54.6914C216.891 55.1309 217.633 55.624 218.229 56.1709C218.824 56.7178 219.273 57.3379 219.576 58.0312C219.879 58.7246 220.03 59.5107 220.03 60.3896C220.03 61.3174 219.85 62.1475 219.488 62.8799C219.127 63.6123 218.604 64.2324 217.921 64.7402C217.237 65.248 216.422 65.6338 215.475 65.8975C214.527 66.1611 213.468 66.293 212.296 66.293C211.241 66.293 210.201 66.1562 209.176 65.8828C208.15 65.5996 207.218 65.1748 206.378 64.6084C205.548 64.042 204.884 63.3193 204.386 62.4404C203.888 61.5615 203.639 60.5215 203.639 59.3203H208.048C208.048 59.9844 208.15 60.5459 208.355 61.0049C208.561 61.4639 208.849 61.835 209.22 62.1182C209.601 62.4014 210.05 62.6064 210.567 62.7334C211.095 62.8604 211.671 62.9238 212.296 62.9238C213.058 62.9238 213.683 62.8164 214.171 62.6016C214.669 62.3867 215.035 62.0889 215.27 61.708C215.514 61.3271 215.636 60.8975 215.636 60.4189ZM227.691 44.6719V66H223.312V44.6719H227.691ZM245.519 62.5723V66H234.781V62.5723H245.519ZM236.202 44.6719V66H231.808V44.6719H236.202Z" fill="url(#paint0_linear_122_239)"/>
<defs>
<linearGradient id="paint0_linear_122_239" x1="134" y1="37" x2="134" y2="76" gradientUnits="userSpaceOnUse">
<stop stop-color="white"/>
<stop offset="1" stop-color="#D9D9D9" stop-opacity="0.8"/>
</linearGradient>
</defs>
</svg>
